<svg width="15" height="13" viewBox="0 0 15 13" fill="none" xmlns="http://www.w3.org/2000/svg">
<path d="M5.25 5.77778C5.84334 5.77778 6.42336 5.60835 6.91671 5.29091C7.41006 4.97348 7.79458 4.5223 8.02164 3.99442C8.2487 3.46654 8.30811 2.88569 8.19236 2.3253C8.0766 1.76491 7.79088 1.25016 7.37132 0.846137C6.95176 0.442119 6.41721 0.166979 5.83527 0.0555105C5.25333 -0.0559579 4.65013 0.0012517 4.10195 0.219905C3.55377 0.438558 3.08524 0.808834 2.75559 1.28391C2.42595 1.75898 2.25 2.31752 2.25 2.88889C2.25 3.65507 2.56607 4.38987 3.12868 4.93164C3.69129 5.47341 4.45435 5.77778 5.25 5.77778ZM5.25 1.44445C5.54667 1.44445 5.83668 1.52916 6.08335 1.68788C6.33003 1.8466 6.52229 2.07219 6.63582 2.33612C6.74935 2.60006 6.77906 2.89049 6.72118 3.17069C6.6633 3.45088 6.52044 3.70826 6.31066 3.91027C6.10088 4.11228 5.83361 4.24985 5.54264 4.30558C5.25166 4.36131 4.95006 4.33271 4.67597 4.22338C4.40189 4.11406 4.16762 3.92892 4.0028 3.69138C3.83797 3.45384 3.75 3.17457 3.75 2.88889C3.75 2.5058 3.90804 2.1384 4.18934 1.86751C4.47064 1.59663 4.85218 1.44445 5.25 1.44445ZM11.25 7.22222C11.695 7.22222 12.13 7.09515 12.5 6.85707C12.87 6.619 13.1584 6.28061 13.3287 5.8847C13.499 5.4888 13.5436 5.05315 13.4568 4.63286C13.37 4.21257 13.1557 3.82651 12.841 3.52349C12.5263 3.22048 12.1254 3.01412 11.689 2.93052C11.2525 2.84692 10.8001 2.88983 10.389 3.05382C9.97783 3.21781 9.62643 3.49551 9.37919 3.85182C9.13196 4.20813 9 4.62703 9 5.05556C9 5.63019 9.23705 6.18129 9.65901 6.58762C10.081 6.99395 10.6533 7.22222 11.25 7.22222ZM11.25 4.33333C11.3983 4.33333 11.5433 4.37569 11.6667 4.45505C11.79 4.53441 11.8861 4.64721 11.9429 4.77917C11.9997 4.91114 12.0145 5.05636 11.9856 5.19646C11.9567 5.33655 11.8852 5.46524 11.7803 5.56624C11.6754 5.66725 11.5418 5.73603 11.3963 5.7639C11.2508 5.79177 11.1 5.77747 10.963 5.7228C10.8259 5.66814 10.7088 5.57557 10.6264 5.4568C10.544 5.33803 10.5 5.1984 10.5 5.05556C10.5 4.86401 10.579 4.68031 10.7197 4.54487C10.8603 4.40943 11.0511 4.33333 11.25 4.33333ZM11.25 7.94445C10.4189 7.94533 9.61159 8.21208 8.955 8.70278C8.22038 7.99815 7.28554 7.51876 6.26837 7.32509C5.25119 7.13141 4.19724 7.23211 3.23942 7.61449C2.2816 7.99687 1.46281 8.6438 0.886306 9.4737C0.309802 10.3036 0.00140265 11.2793 0 12.2778C0 12.4693 0.0790176 12.653 0.21967 12.7885C0.360322 12.9239 0.551088 13 0.75 13C0.948912 13 1.13968 12.9239 1.28033 12.7885C1.42098 12.653 1.5 12.4693 1.5 12.2778C1.5 11.3201 1.89509 10.4016 2.59835 9.72434C3.30161 9.04712 4.25544 8.66667 5.25 8.66667C6.24456 8.66667 7.19839 9.04712 7.90165 9.72434C8.60491 10.4016 9 11.3201 9 12.2778C9 12.4693 9.07902 12.653 9.21967 12.7885C9.36032 12.9239 9.55109 13 9.75 13C9.94891 13 10.1397 12.9239 10.2803 12.7885C10.421 12.653 10.5 12.4693 10.5 12.2778C10.5018 11.4316 10.2798 10.599 9.855 9.85833C10.1864 9.60612 10.5849 9.44886 11.0048 9.40454C11.4248 9.36021 11.8492 9.43062 12.2295 9.6077C12.6098 9.78479 12.9306 10.0614 13.1553 10.4059C13.38 10.7503 13.4995 11.1488 13.5 11.5556C13.5 11.7471 13.579 11.9308 13.7197 12.0662C13.8603 12.2017 14.0511 12.2778 14.25 12.2778C14.4489 12.2778 14.6397 12.2017 14.7803 12.0662C14.921 11.9308 15 11.7471 15 11.5556C15 10.5978 14.6049 9.67933 13.9017 9.00212C13.1984 8.3249 12.2446 7.94445 11.25 7.94445Z" fill="#002480"/>
</svg>
