<svg width="13" height="16" viewBox="0 0 13 16" fill="none" xmlns="http://www.w3.org/2000/svg">
<path d="M6.79913 13.4474L6.5 13.3173L6.20087 13.4474L2.30297 15.1427C2.30265 15.1428 2.30233 15.143 2.30201 15.1431C1.91333 15.3105 1.5931 15.2806 1.24967 15.0533L0.835714 15.6787L1.24967 15.0533C0.905329 14.8254 0.75 14.5395 0.75 14.1116V1.88468C0.75 1.56356 0.854356 1.30933 1.07977 1.08096C1.30547 0.852309 1.55156 0.750472 1.85764 0.75H11.1429C11.4493 0.75 11.6952 0.851672 11.9207 1.08051L12.454 0.554985L11.9207 1.08051C12.1465 1.30965 12.2504 1.56384 12.25 1.88379V1.88468V14.1116C12.25 14.5386 12.0948 14.8249 11.7498 15.0536C11.4065 15.2812 11.0867 15.311 10.6983 15.1432C10.698 15.1431 10.6978 15.143 10.6976 15.1429L6.79913 13.4474Z" stroke="#002480" stroke-width="1.5"/>
</svg>
