<svg width="35" height="10" viewBox="0 0 35 10" fill="none" xmlns="http://www.w3.org/2000/svg">
<path d="M6.69922 3.28125C6.48828 2.19141 5.58594 1.58203 4.50781 1.58203C3.04297 1.58203 1.95312 2.70703 1.95312 4.75781C1.95312 6.82031 3.05469 7.93359 4.50781 7.93359C5.57422 7.93359 6.47656 7.33594 6.69922 6.25781L8 6.26953C7.73047 7.94531 6.35938 9.11719 4.49609 9.11719C2.28125 9.11719 0.675781 7.46484 0.675781 4.75781C0.675781 2.03906 2.29297 0.398438 4.49609 0.398438C6.28906 0.398438 7.70703 1.45312 8 3.28125H6.69922ZM10.543 5.22656V9H9.28906V0.515625H10.5195V3.67969H10.6016C10.9062 2.98828 11.4922 2.55469 12.4883 2.55469C13.8008 2.55469 14.668 3.36328 14.668 4.95703V9H13.4141V5.10938C13.4141 4.17188 12.9102 3.63281 12.0664 3.63281C11.1875 3.63281 10.543 4.20703 10.543 5.22656ZM18.9219 9.12891C17.0469 9.12891 15.8984 7.83984 15.8984 5.85938C15.8984 3.90234 17.0703 2.55469 18.8398 2.55469C20.293 2.55469 21.6641 3.45703 21.6641 5.75391V6.19922H17.1406C17.1758 7.40625 17.8848 8.09766 18.9336 8.09766C19.6484 8.09766 20.1055 7.79297 20.3164 7.40625H21.582C21.3008 8.4375 20.3164 9.12891 18.9219 9.12891ZM17.1523 5.26172H20.4336C20.4336 4.28906 19.8125 3.58594 18.8516 3.58594C17.8496 3.58594 17.1992 4.35938 17.1523 5.26172ZM25.6016 9.12891C23.75 9.12891 22.625 7.75781 22.625 5.84766C22.625 3.90234 23.7852 2.55469 25.5781 2.55469C27.0312 2.55469 28.0859 3.41016 28.2148 4.69922H26.9961C26.8672 4.10156 26.3867 3.59766 25.6016 3.59766C24.5703 3.59766 23.8789 4.45312 23.8789 5.8125C23.8789 7.20703 24.5586 8.0625 25.6016 8.0625C26.3047 8.0625 26.8438 7.67578 26.9961 6.98438H28.2148C28.0742 8.21484 27.1016 9.12891 25.6016 9.12891ZM29.3984 9V0.515625H30.6523V5.32031H30.7578L33.2773 2.63672H34.7773L32.2109 5.36719L34.9531 9H33.418L31.2617 6.14062L30.6523 6.73828V9H29.3984Z" fill="#0050FF"/>
</svg>
