<svg width="20" height="20" viewBox="0 0 20 20" fill="none" xmlns="http://www.w3.org/2000/svg">
<path d="M16.75 12.4373V16.7167C16.7497 17.3222 16.5091 17.9028 16.0809 18.331C15.6527 18.7591 15.072 18.9997 14.4664 19H3.28364C2.98265 18.9999 2.68465 18.9403 2.40676 18.8247C2.12888 18.709 1.87659 18.5396 1.66439 18.3262C1.45218 18.1128 1.28425 17.8595 1.17024 17.581C1.05623 17.3024 0.998389 17.0041 1.00004 16.7032V5.53432C0.998249 5.23384 1.05612 4.936 1.17029 4.65805C1.28447 4.3801 1.45268 4.12757 1.66518 3.9151C1.87768 3.70263 2.13024 3.53443 2.40822 3.42027C2.68621 3.30611 2.98409 3.24825 3.2846 3.25004H7.56357" stroke="#002480" stroke-width="1.5" stroke-linecap="round" stroke-linejoin="round"/>
<path d="M16.9766 6.84896L13.151 3.02251M5.5 13.2245V11.197C5.50187 10.8627 5.63485 10.5415 5.86991 10.3046L14.7964 1.37806C14.9149 1.25829 15.0559 1.1632 15.2113 1.09831C15.3668 1.03341 15.5336 1 15.702 1C15.8704 1 16.0372 1.03341 16.1927 1.09831C16.3481 1.1632 16.4891 1.25829 16.6076 1.37806L18.6219 3.39242C18.7417 3.51087 18.8368 3.65189 18.9017 3.80734C18.9666 3.96278 19 4.12955 19 4.298C19 4.46644 18.9666 4.63321 18.9017 4.78866C18.8368 4.9441 18.7417 5.08513 18.6219 5.20357L9.69543 14.1301C9.45806 14.3658 9.13749 14.4987 8.80296 14.5H6.77549C6.60792 14.5002 6.44195 14.4674 6.28709 14.4034C6.13223 14.3394 5.99152 14.2455 5.87303 14.127C5.75454 14.0085 5.6606 13.8678 5.59659 13.7129C5.53258 13.5581 5.49975 13.3921 5.5 13.2245Z" stroke="#002480" stroke-width="1.5" stroke-linecap="round" stroke-linejoin="round"/>
</svg>
