<svg width="15" height="15" viewBox="0 0 15 15" fill="none" xmlns="http://www.w3.org/2000/svg">
<path d="M12.0401 8.89991V11.9C12.0399 12.3244 11.8712 12.7315 11.5711 13.0316C11.2709 13.3318 10.8639 13.5005 10.4394 13.5007H2.60073C2.38975 13.5006 2.18087 13.4588 1.98608 13.3777C1.7913 13.2967 1.61445 13.1779 1.46571 13.0283C1.31696 12.8787 1.19925 12.7011 1.11933 12.5059C1.03942 12.3106 0.998871 12.1015 1.00003 11.8905V4.06064C0.998773 3.84999 1.03934 3.64119 1.11937 3.44633C1.1994 3.25148 1.31731 3.07444 1.46626 2.92549C1.61522 2.77654 1.79225 2.65863 1.9871 2.5786C2.18196 2.49857 2.39076 2.458 2.60141 2.45926H5.60079" stroke="#002480" stroke-width="1.5" stroke-linecap="round" stroke-linejoin="round"/>
<path d="M12.0403 5.22014L9.28014 2.45928M3.75977 9.82023V8.35736C3.76112 8.11614 3.85707 7.88438 4.02666 7.71343L10.4673 1.27277C10.5528 1.18636 10.6545 1.11775 10.7667 1.07093C10.8788 1.02411 10.9992 1 11.1207 1C11.2422 1 11.3626 1.02411 11.4747 1.07093C11.5869 1.11775 11.6886 1.18636 11.7741 1.27277L13.2275 2.72618C13.3139 2.81164 13.3825 2.91339 13.4293 3.02555C13.4762 3.1377 13.5003 3.25803 13.5003 3.37957C13.5003 3.50111 13.4762 3.62144 13.4293 3.73359C13.3825 3.84575 13.3139 3.9475 13.2275 4.03296L6.78685 10.4736C6.61559 10.6437 6.38428 10.7396 6.14292 10.7405H4.68005C4.55915 10.7407 4.4394 10.717 4.32766 10.6708C4.21593 10.6246 4.11441 10.5569 4.02892 10.4714C3.94342 10.3859 3.87564 10.2843 3.82946 10.1726C3.78327 10.0609 3.75959 9.94113 3.75977 9.82023Z" stroke="#002480" stroke-width="1.5" stroke-linecap="round" stroke-linejoin="round"/>
</svg>
