<svg width="24" height="27" viewBox="0 0 24 27" fill="none" xmlns="http://www.w3.org/2000/svg">
<path d="M0 25.245V9.99096C0 9.5417 0.0982856 9.11641 0.294857 8.71511C0.491428 8.31381 0.762286 7.9833 1.10743 7.72356L10.3389 0.566852C10.8223 0.188951 11.3743 0 11.9949 0C12.6154 0 13.1709 0.188951 13.6611 0.566852L22.8926 7.72181C23.2389 7.98154 23.5097 8.31264 23.7051 8.71511C23.9017 9.11641 24 9.5417 24 9.99096V25.245C24 25.7154 23.8291 26.1254 23.4874 26.4753C23.1457 26.8251 22.7451 27 22.2857 27H16.4846C16.0914 27 15.7623 26.8643 15.4971 26.5928C15.232 26.3202 15.0994 25.9833 15.0994 25.582V17.2126C15.0994 16.8113 14.9669 16.4749 14.7017 16.2035C14.4354 15.9309 14.1063 15.7946 13.7143 15.7946H10.2857C9.89371 15.7946 9.56514 15.9309 9.3 16.2035C9.03371 16.4749 8.90057 16.8113 8.90057 17.2126V25.5838C8.90057 25.9851 8.768 26.3214 8.50286 26.5928C8.23771 26.8643 7.90914 27 7.51714 27H1.71429C1.25486 27 0.854285 26.8251 0.512571 26.4753C0.170857 26.1254 0 25.7154 0 25.245Z" fill="#D9D9D9"/>
</svg>
