<svg width="152" height="151" viewBox="0 0 152 151" fill="none" xmlns="http://www.w3.org/2000/svg">
<path d="M88.0334 134.859C109.039 134.859 126.067 118.997 126.067 99.4296C126.067 79.8624 109.039 64 88.0334 64C67.0281 64 50 79.8624 50 99.4296C50 118.997 67.0281 134.859 88.0334 134.859Z" fill="#BDCFEF"/>
<path d="M65.6883 39.5435C70.6128 25.7341 65.4778 11.2846 54.219 7.26971C42.9602 3.25476 29.8411 11.1947 24.9166 25.0041C19.9921 38.8135 25.1271 53.2629 36.3859 57.2779C47.6447 61.2928 60.7638 53.3529 65.6883 39.5435Z" fill="#BDCFEF"/>
<path d="M28.7636 26.9812C26.2421 34.1881 26.9817 41.6065 30.1745 46.9197C30.7566 47.8884 34.2658 45.5534 34.2658 45.5534C34.2658 45.5534 33.849 49.9168 34.7378 50.5494C35.7851 51.2949 40.2956 48.7018 40.2956 48.7018C40.2956 48.7018 42.2851 53.6444 44.2896 53.5003C45.7803 53.3932 49.1061 49.0085 49.1061 49.0085C49.1061 49.0085 50.0605 52.7688 50.8523 52.3399C55.5522 49.7937 59.6003 45.0771 61.7383 38.9662C65.7211 27.5829 61.5681 15.672 52.4624 12.3625C43.3567 9.05288 32.7464 15.5979 28.7636 26.9812Z" fill="#FFF7C6"/>
<path d="M130.866 57.2779C142.124 53.263 147.259 38.8135 142.335 25.0041C137.41 11.1947 124.291 3.25479 113.032 7.26973C101.774 11.2847 96.6386 25.7341 101.563 39.5435C106.488 53.3529 119.607 61.2928 130.866 57.2779Z" fill="#BDCFEF"/>
<path d="M138.696 26.9812C141.288 34.1881 140.528 41.6065 137.246 46.9197C136.648 47.8884 133.041 45.5534 133.041 45.5534C133.041 45.5534 133.47 49.9168 132.556 50.5494C131.48 51.2949 126.844 48.7018 126.844 48.7018C126.844 48.7018 124.799 53.6444 122.739 53.5003C121.207 53.3932 117.789 49.0085 117.789 49.0085C117.789 49.0085 116.808 52.7688 115.994 52.3399C111.164 49.7937 107.003 45.0771 104.806 38.9662C100.712 27.5829 104.981 15.672 114.339 12.3625C123.698 9.05288 134.603 15.5979 138.696 26.9812Z" fill="#FFF7C6"/>
<path d="M83.2284 81.9123C105.614 81.9123 123.761 65.6977 123.761 45.6961C123.761 25.6944 105.614 9.47986 83.2284 9.47986C60.8426 9.47986 42.6953 25.6944 42.6953 45.6961C42.6953 65.6977 60.8426 81.9123 83.2284 81.9123Z" fill="#BDCFEF"/>
<path d="M66.9194 41.8077C68.6164 41.8077 69.992 40.432 69.992 38.735C69.992 37.038 68.6164 35.6624 66.9194 35.6624C65.2224 35.6624 63.8467 37.038 63.8467 38.735C63.8467 40.432 65.2224 41.8077 66.9194 41.8077Z" fill="#42332D"/>
<path d="M99.5375 41.8077C101.235 41.8077 102.61 40.432 102.61 38.735C102.61 37.038 101.235 35.6624 99.5375 35.6624C97.8405 35.6624 96.4648 37.038 96.4648 38.735C96.4648 40.432 97.8405 41.8077 99.5375 41.8077Z" fill="#42332D"/>
<path d="M83.2289 38.7349C78.5083 38.7349 74.6816 42.5615 74.6816 47.2822V55.5652C74.6816 60.2859 78.5083 64.1125 83.2289 64.1125C87.9496 64.1125 91.7764 60.2859 91.7764 55.5652V47.2822C91.7764 42.5615 87.9496 38.7349 83.2289 38.7349Z" fill="#42332D"/>
<path d="M47.6097 78.7877L19.0941 47.5625C17.1972 45.4853 17.3433 42.2636 19.4205 40.3666L32.065 28.8192C34.1422 26.9222 37.3639 27.0684 39.2609 29.1456L71.2769 64.2037L71.2819 64.2014L103.718 136.578C104.869 139.146 103.72 142.159 101.153 143.31L85.5269 150.313C82.9598 151.463 79.9462 150.315 78.7957 147.748L48.4966 80.1394C48.2748 79.6445 47.9754 79.1882 47.6097 78.7877Z" fill="#71480E"/>
<path d="M54.0201 71.6731L45.7638 74.6173C42.3292 75.8421 40.5378 79.6192 41.7626 83.0538L42.91 86.2715C44.1348 89.7061 47.912 91.4975 51.3466 90.2727L59.6029 87.3285C63.0375 86.1037 64.8289 82.3265 63.6041 78.8919L62.4566 75.6743C61.2318 72.2397 57.4547 70.4483 54.0201 71.6731Z" fill="#BDCFEF"/>
<path d="M80.9726 74.0322L68.7892 78.3768C65.3546 79.6016 63.5632 83.3788 64.788 86.8134L65.9354 90.031C67.1602 93.4656 70.9374 95.257 74.372 94.0322L86.5554 89.6876C89.9899 88.4628 91.7813 84.6856 90.5565 81.251L89.4091 78.0334C88.1843 74.5988 84.4071 72.8074 80.9726 74.0322Z" fill="#BDCFEF"/>
<path d="M79.9065 111.014L64.5516 112.779C60.223 113.276 57.1171 117.188 57.6144 121.517L58.0804 125.572C58.5778 129.901 62.4901 133.007 66.8187 132.509L82.1736 130.745C86.5023 130.248 89.6082 126.335 89.1108 122.007L88.6449 117.951C88.1475 113.623 84.2352 110.517 79.9065 111.014Z" fill="#BDCFEF"/>
<path d="M89.5149 113.236L77.5653 123.039C74.1967 125.802 73.7061 130.774 76.4696 134.142L79.0585 137.298C81.822 140.667 86.7931 141.157 90.1617 138.394L102.111 128.591C105.48 125.828 105.971 120.857 103.207 117.488L100.618 114.332C97.8546 110.963 92.8835 110.473 89.5149 113.236Z" fill="#BDCFEF"/>
<path d="M120.852 127.81C125.142 127.81 128.619 124.333 128.619 120.044C128.619 115.755 125.142 112.278 120.852 112.278C116.563 112.278 113.086 115.755 113.086 120.044C113.086 124.333 116.563 127.81 120.852 127.81Z" fill="#BDCFEF"/>
<path d="M7.87552 44.9157C2.35047 42.3016 0 35.6838 0 35.6838C0 35.6838 6.60741 33.3043 12.1325 35.9185C17.6575 38.5326 20.008 45.1504 20.008 45.1504C20.008 45.1504 13.4006 47.5298 7.87552 44.9157Z" fill="#B8D129"/>
<path d="M12.5179 54.6827C7.10486 57.5216 0.405273 55.4156 0.405273 55.4156C0.405273 55.4156 2.48189 48.7069 7.89489 45.868C13.3079 43.0291 20.0075 45.1351 20.0075 45.1351C20.0075 45.1351 17.9309 51.8438 12.5179 54.6827Z" fill="#B8D129"/>
<path d="M68.2127 59.4656C72.1924 59.792 75.1527 63.2969 75.1527 63.2969C75.1527 63.2969 71.6608 66.2726 67.6811 65.9462C63.7015 65.6197 60.7412 62.1148 60.7412 62.1148C60.7412 62.1148 64.2331 59.1391 68.2127 59.4656Z" fill="#B8D129"/>
<path d="M63.1208 54.5521C65.7767 51.5705 70.3575 51.3159 70.3575 51.3159C70.3575 51.3159 70.6321 55.8955 67.9762 58.8771C65.3203 61.8587 60.7395 62.1133 60.7395 62.1133C60.7395 62.1133 60.4649 57.5337 63.1208 54.5521Z" fill="#B8D129"/>
</svg>
