<svg width="9" height="9" viewBox="0 0 9 9" fill="none" xmlns="http://www.w3.org/2000/svg">
<path fill-rule="evenodd" clip-rule="evenodd" d="M1.34968 2.69937C1.34968 1.98345 1.63408 1.29686 2.14031 0.790626C2.64654 0.284397 3.33313 0 4.04905 0C4.76497 0 5.45156 0.284397 5.95779 0.790626C6.46402 1.29686 6.74842 1.98345 6.74842 2.69937H7.19831C7.43695 2.69937 7.66582 2.79417 7.83456 2.96291C8.0033 3.13165 8.0981 3.36052 8.0981 3.59916V8.0981C8.0981 8.33674 8.0033 8.56561 7.83456 8.73435C7.66582 8.90309 7.43695 8.99789 7.19831 8.99789H0.899789C0.66115 8.99789 0.432285 8.90309 0.263542 8.73435C0.0947989 8.56561 0 8.33674 0 8.0981V3.59916C0 3.36052 0.0947989 3.13165 0.263542 2.96291C0.432285 2.79417 0.66115 2.69937 0.899789 2.69937H1.34968ZM4.04905 0.899789C4.52633 0.899789 4.98406 1.08939 5.32155 1.42687C5.65903 1.76436 5.84863 2.22209 5.84863 2.69937H2.24947C2.24947 2.22209 2.43907 1.76436 2.77656 1.42687C3.11404 1.08939 3.57177 0.899789 4.04905 0.899789ZM4.94884 5.39873C4.94884 5.55668 4.90726 5.71183 4.82829 5.84862C4.74931 5.9854 4.63573 6.09898 4.49895 6.17795V6.74842C4.49895 6.86774 4.45155 6.98217 4.36717 7.06654C4.2828 7.15091 4.16837 7.19831 4.04905 7.19831C3.92973 7.19831 3.8153 7.15091 3.73093 7.06654C3.64656 6.98217 3.59916 6.86774 3.59916 6.74842V6.17795C3.42763 6.07891 3.29358 5.92604 3.21778 5.74305C3.14199 5.56005 3.1287 5.35717 3.17996 5.16585C3.23123 4.97453 3.34418 4.80547 3.50132 4.68489C3.65845 4.56432 3.85098 4.49895 4.04905 4.49895C4.28769 4.49895 4.51655 4.59374 4.6853 4.76249C4.85404 4.93123 4.94884 5.1601 4.94884 5.39873Z" fill="#0039BE"/>
</svg>
