<svg width="215" height="86" viewBox="0 0 215 86" fill="none" xmlns="http://www.w3.org/2000/svg">
<path d="M25.7274 41.494V68.7397C25.7274 70.857 24.0109 72.5735 21.8936 72.5735H14.9931C12.8758 72.5735 11.1593 70.857 11.1593 68.7397V41.494C11.1593 39.3767 9.44285 37.6602 7.32552 37.6602H0V27.4283C0 25.3109 1.71646 23.5945 3.83379 23.5945H33.017C35.1344 23.5945 36.8508 25.3109 36.8508 27.4283V37.6602H29.5612C27.4439 37.6602 25.7274 39.3767 25.7274 41.494Z" fill="white"/>
<path d="M54.7351 36.4403V50.7932C53.8022 50.2669 52.953 50.0037 52.1875 50.0037C49.7475 50.0037 48.5275 51.8696 48.5275 55.6013V68.7398C48.5275 70.8571 46.8111 72.5736 44.6937 72.5736H38.9415C36.8241 72.5736 35.1077 70.8571 35.1077 68.7398V53.0179C35.1077 47.8508 36.519 43.7304 39.3417 40.6565C42.1644 37.5826 45.9321 36.0457 50.6446 36.0457C51.6971 36.0457 53.0606 36.1772 54.7351 36.4403Z" fill="white"/>
<path d="M72.1022 36.7993V68.7399C72.1022 70.8572 70.3858 72.5737 68.2685 72.5737H62.5162C60.3988 72.5737 58.6824 70.8572 58.6824 68.7399V36.7993H72.1022ZM65.4282 20.8318C67.2462 20.8318 68.8191 21.4717 70.1467 22.7515C71.4743 24.0313 72.1381 25.5443 72.1381 27.2906C72.1381 29.1564 71.5102 30.6874 70.2543 31.8835C68.9984 33.0795 67.3898 33.6776 65.4282 33.6776C63.4666 33.6776 61.8579 33.0795 60.6021 31.8835C59.3462 30.6874 58.7183 29.1564 58.7183 27.2906C58.7183 25.5443 59.3821 24.0313 60.7097 22.7515C62.0374 21.4717 63.6102 20.8318 65.4282 20.8318Z" fill="white"/>
<path d="M168.494 1.78064C170.611 1.78064 172.328 3.4971 172.328 5.61443V48.1294C172.328 56.2993 169.892 62.8283 165.022 67.7163C160.151 72.6043 153.666 75.0483 145.566 75.0483C137.501 75.0483 131.329 72.6741 127.052 67.9258C122.775 63.1774 120.637 56.3517 120.637 47.4486V5.61446C120.637 3.49714 122.353 1.78068 124.471 1.78068H141.9V47.3962C141.9 51.7605 143.453 53.9426 146.561 53.9426C149.563 53.9426 151.065 51.7605 151.065 47.3962V1.78064H168.494Z" fill="white"/>
<path d="M211.968 0.609992C213.735 0.998854 215 2.57251 215 4.38194V21.839C213.464 21.3153 212.277 21.0534 211.439 21.0534C209.833 21.0534 208.454 21.6469 207.302 22.834C206.149 24.0211 205.573 25.4526 205.573 27.1285C205.573 28.56 206.202 30.3755 207.459 32.5751L209.082 35.4032C212.015 40.5007 213.481 45.4236 213.481 50.1719C213.481 57.1199 211.011 63.0029 206.071 67.8211C201.13 72.6393 195.099 75.0484 187.976 75.0484C185.363 75.0484 182.771 74.5902 180.198 73.6738C178.732 73.1514 177.816 71.6746 177.816 70.1178V52.0049C179.841 53.2967 181.64 53.9427 183.211 53.9427C185.061 53.9427 186.606 53.4102 187.846 52.3453C189.085 51.2804 189.705 49.9449 189.705 48.3389C189.705 47.2915 188.71 45.0046 186.72 41.4782C183.542 35.8919 181.954 30.3056 181.954 24.7193C181.954 17.9809 184.354 12.1764 189.155 7.30582C193.955 2.43526 199.69 0 206.359 0C208.25 0 210.12 0.203381 211.968 0.609992Z" fill="white"/>
<path d="M116.769 40.0163C115.36 36.0482 111.641 33.7462 108.461 34.8747C106.945 35.4125 105.842 36.6438 105.238 38.2036C102.462 36.6648 99.365 35.8159 95.8715 35.8159C93.1925 35.8159 90.579 36.402 88.0312 37.5741C87.8069 37.6773 87.6349 37.8282 87.4172 37.9378C86.792 36.5092 85.7416 35.3809 84.3156 34.8748C81.1358 33.7462 77.4163 36.0482 76.0081 40.0164C74.7337 43.607 75.804 47.3079 78.3721 48.8202C77.7672 50.9063 77.4282 53.1803 77.4282 55.6946V81.7147C77.4282 83.8321 79.1445 85.5485 81.262 85.5485H90.8481V72.8699C92.4626 73.029 95.6843 73.0615 96.4815 73.0615C101.457 73.0615 105.763 71.2197 109.399 67.5357C113.035 63.8519 114.853 59.4743 114.853 54.4029C114.853 52.483 114.52 50.7111 114.023 49.0119C116.862 47.6533 118.103 43.7775 116.769 40.0163ZM100.998 56.7744C100.998 59.4572 98.8234 61.6319 96.1408 61.6319C93.4581 61.6319 91.2833 59.4572 91.2833 56.7744V52.0671C91.2833 49.3846 93.4578 47.2098 96.1406 47.2098C98.8231 47.2098 100.998 49.3846 100.998 52.0671V56.7744Z" fill="white"/>
</svg>
