<svg width="32" height="32" viewBox="0 0 32 32" fill="none" xmlns="http://www.w3.org/2000/svg">
<path d="M15.9989 29.8C19.0908 29.8035 22.0922 28.7563 24.5109 26.8303L25.1333 26.3347L24.7903 25.6169C24.4934 24.9955 23.9033 24.5121 23.3171 24.1468C22.7009 23.7628 21.9473 23.423 21.1463 23.1408C19.55 22.5784 17.637 22.2 16 22.2C14.363 22.2 12.45 22.5784 10.8537 23.1408C10.0527 23.423 9.29911 23.7628 8.68285 24.1468C8.0967 24.5121 7.50661 24.9955 7.2097 25.6169L6.86627 26.3357L7.49012 26.8311C9.83609 28.6941 12.7892 29.7997 15.9989 29.8ZM15.9989 29.8L16 28.8004V29.8C15.9996 29.8 15.9993 29.8 15.9989 29.8ZM26.2031 25.3359L25.4034 24.3629C24.4514 23.2045 22.7267 22.3446 20.8212 21.7786C18.9428 21.2206 17.0666 21 16 21C14.9334 21 13.0572 21.2206 11.1788 21.7786C9.27328 22.3446 7.54862 23.2045 6.59657 24.3629L5.79735 25.3354L5.03081 24.337C3.19481 21.9456 2.1997 19.0149 2.2 16L26.2031 25.3359ZM26.2031 25.3359L26.9695 24.3366M26.2031 25.3359L26.9695 24.3366M26.9695 24.3366C28.7293 22.0419 29.8 19.1418 29.8 16C29.8 8.39172 23.6083 2.2 16 2.2C8.39175 2.2 2.20006 8.39166 2.2 15.9999L26.9695 24.3366ZM13.5958 9.59584L14.3029 10.3029L13.5958 9.59584C12.9582 10.2335 12.6 11.0983 12.6 12C12.6 12.9017 12.9582 13.7665 13.5958 14.4042C14.2335 15.0418 15.0983 15.4 16 15.4C16.9017 15.4 17.7665 15.0418 18.4042 14.4042C19.0418 13.7665 19.4 12.9017 19.4 12C19.4 11.0983 19.0418 10.2335 18.4042 9.59584C17.7665 8.95821 16.9017 8.6 16 8.6C15.0983 8.6 14.2335 8.95821 13.5958 9.59584ZM10.2597 2.14181C12.0796 1.38799 14.0302 1 16 1C17.9698 1 19.9204 1.38799 21.7403 2.14181C23.5601 2.89563 25.2137 4.00052 26.6066 5.3934C27.9995 6.78628 29.1044 8.43987 29.8582 10.2597C30.612 12.0796 31 14.0302 31 16C31 19.9782 29.4196 23.7936 26.6066 26.6066C23.7936 29.4196 19.9782 31 16 31C14.0302 31 12.0796 30.612 10.2597 29.8582C8.43987 29.1044 6.78628 27.9995 5.3934 26.6066C2.58035 23.7936 1 19.9782 1 16C1 12.0218 2.58035 8.20644 5.3934 5.3934C6.78628 4.00052 8.43986 2.89563 10.2597 2.14181ZM11.4 12C11.4 9.44828 13.4483 7.4 16 7.4C18.5517 7.4 20.6 9.44829 20.6 12C20.6 14.5517 18.5517 16.6 16 16.6C13.4483 16.6 11.4 14.5517 11.4 12Z" stroke="#D9D9D9" stroke-width="2"/>
</svg>
