<svg width="39" height="36" viewBox="0 0 39 36" fill="none" xmlns="http://www.w3.org/2000/svg">
<path d="M38.5001 5.11276C37.1871 1.3754 33.7198 -0.792766 30.7555 0.270161C29.3865 0.760746 28.3876 1.87171 27.8139 3.27604C25.3367 1.89311 22.531 1.03668 19.5003 1.03668C18.8106 1.03668 18.1553 1.16253 17.4867 1.24187C17.301 1.25907 17.1152 1.27538 16.93 1.29851C16.4786 1.36683 16.0277 1.42215 15.5886 1.52507C14.2787 1.79968 12.9847 2.22019 11.7099 2.81258C11.5007 2.90978 11.3404 3.05192 11.1375 3.15507C10.5546 1.8096 9.57539 0.746878 8.24604 0.270186C5.28173 -0.792741 1.81419 1.37543 0.501405 5.11278C-0.68658 8.49464 0.311177 11.9803 2.70528 13.4047L3.03685 13.4064C2.54145 15.0333 2.19724 16.7272 2.19724 18.5183C2.19724 28.1731 9.94406 36 19.5003 36C29.0566 36 36.8036 28.1731 36.8036 18.5183C36.8036 16.7777 36.4749 15.1303 36.0061 13.5437C38.6029 12.2337 39.7335 8.62401 38.5001 5.11276ZM11.134 16.5873C10.3134 16.5873 9.64825 15.9153 9.64825 15.0862C9.64825 14.2571 10.3134 13.5851 11.134 13.5851C11.9547 13.5851 12.6198 14.2571 12.6198 15.0862C12.6198 15.9153 11.9547 16.5873 11.134 16.5873ZM23.8498 20.735C23.8498 23.2617 21.8224 25.31 19.3217 25.31C16.8207 25.31 14.7933 23.2617 14.7933 20.735V16.3014C14.7933 13.7749 16.8204 11.7266 19.3214 11.7266C21.8222 11.7266 23.8498 13.7749 23.8498 16.3014V20.735ZM27.5091 16.5873C26.6885 16.5873 26.0234 15.9153 26.0234 15.0862C26.0234 14.2571 26.6885 13.5851 27.5091 13.5851C28.3298 13.5851 28.9951 14.2571 28.9951 15.0862C28.9951 15.9153 28.3298 16.5873 27.5091 16.5873Z" fill="#0050FF"/>
</svg>
