<svg width="100" height="100" viewBox="0 0 100 100" fill="none" xmlns="http://www.w3.org/2000/svg">
<circle cx="50" cy="50" r="50" fill="#85B0FF"/>
<path d="M79.231 33.6691C77.211 28.0631 71.8766 24.8109 67.3162 26.4052C65.2099 27.1411 63.6732 28.8076 62.7906 30.9141C58.9795 28.8397 54.663 27.555 50.0005 27.555C48.9393 27.555 47.9312 27.7438 46.9026 27.8628C46.617 27.8886 46.3311 27.9131 46.0461 27.9478C45.3518 28.0502 44.6581 28.1332 43.9825 28.2876C41.9672 28.6995 39.9764 29.3303 38.0152 30.2189C37.6934 30.3647 37.4467 30.5779 37.1346 30.7326C36.2379 28.7144 34.7314 27.1203 32.6862 26.4053C28.1257 24.8109 22.7911 28.0631 20.7714 33.6692C18.9437 38.742 20.4787 43.9705 24.162 46.107L24.6721 46.1096C23.9099 48.55 23.3804 51.0909 23.3804 53.7775C23.3804 68.2597 35.2986 80 50.0005 80C64.7025 80 76.621 68.2597 76.621 53.7775C76.621 51.1665 76.1152 48.6954 75.394 46.3156C79.389 44.3506 81.1285 38.936 79.231 33.6691ZM37.1293 50.8809C35.8667 50.8809 34.8435 49.873 34.8435 48.6293C34.8435 47.3856 35.8667 46.3777 37.1293 46.3777C38.3918 46.3777 39.415 47.3856 39.415 48.6293C39.415 49.873 38.3918 50.8809 37.1293 50.8809ZM56.6921 57.1025C56.6921 60.8926 53.573 63.965 49.7256 63.965C45.878 63.965 42.7589 60.8926 42.7589 57.1025V50.4521C42.7589 46.6623 45.8776 43.5899 49.7253 43.5899C53.5726 43.5899 56.6921 46.6623 56.6921 50.4521V57.1025ZM62.3218 50.8809C61.0592 50.8809 60.036 49.873 60.036 48.6293C60.036 47.3856 61.0592 46.3777 62.3218 46.3777C63.5843 46.3777 64.6079 47.3856 64.6079 48.6293C64.6079 49.873 63.5843 50.8809 62.3218 50.8809Z" fill="white"/>
</svg>
