<svg width="298" height="105" viewBox="0 0 298 105" fill="none" xmlns="http://www.w3.org/2000/svg">
<mask id="path-1-inside-1_236_3140" fill="white">
<path fill-rule="evenodd" clip-rule="evenodd" d="M15 0C6.71573 0 0 6.71571 0 15V75.1415C0 83.4258 6.71573 90.1415 15 90.1415H139.84L148.5 105L157.16 90.1415H283C291.284 90.1415 298 83.4258 298 75.1415V15C298 6.71573 291.284 0 283 0H15Z"/>
</mask>
<path fill-rule="evenodd" clip-rule="evenodd" d="M15 0C6.71573 0 0 6.71571 0 15V75.1415C0 83.4258 6.71573 90.1415 15 90.1415H139.84L148.5 105L157.16 90.1415H283C291.284 90.1415 298 83.4258 298 75.1415V15C298 6.71573 291.284 0 283 0H15Z" fill="white"/>
<path d="M139.84 90.1415L141.568 89.1344L140.989 88.1415H139.84V90.1415ZM148.5 105L146.772 106.007L148.5 108.972L150.228 106.007L148.5 105ZM157.16 90.1415V88.1415H156.011L155.432 89.1344L157.16 90.1415ZM2 15C2 7.82029 7.8203 2 15 2V-2C5.61116 -2 -2 5.61114 -2 15H2ZM2 75.1415V15H-2V75.1415H2ZM15 88.1415C7.8203 88.1415 2 82.3212 2 75.1415H-2C-2 84.5303 5.61117 92.1415 15 92.1415V88.1415ZM139.84 88.1415H15V92.1415H139.84V88.1415ZM150.228 103.993L141.568 89.1344L138.112 91.1486L146.772 106.007L150.228 103.993ZM155.432 89.1344L146.772 103.993L150.228 106.007L158.888 91.1486L155.432 89.1344ZM283 88.1415H157.16V92.1415H283V88.1415ZM296 75.1415C296 82.3212 290.18 88.1415 283 88.1415V92.1415C292.389 92.1415 300 84.5304 300 75.1415H296ZM296 15V75.1415H300V15H296ZM283 2C290.18 2 296 7.8203 296 15H300C300 5.61116 292.389 -2 283 -2V2ZM15 2H283V-2H15V2Z" fill="#9DC1FF" mask="url(#path-1-inside-1_236_3140)"/>
</svg>
